<svg width="323" height="228" viewBox="0 0 323 228" fill="none" xmlns="http://www.w3.org/2000/svg">
<path d="M2.39516 19V5H14.1752V19H12.7152V5.88L13.0952 6.28H3.47516L3.85516 5.88V19H2.39516ZM29.1391 5H30.5991V19H29.1391V5ZM20.3791 19H18.8991V5H20.3791V19ZM29.2791 12.54H20.2191V11.24H29.2791V12.54Z" fill="#404040"/>
<path d="M54.7552 19V5H60.5752C62.0552 5 63.2152 5.30667 64.0552 5.92C64.9085 6.52 65.3352 7.40667 65.3352 8.58C65.3352 9.74 64.9285 10.62 64.1152 11.22C63.3018 11.8067 62.2352 12.1 60.9152 12.1L61.2552 11.6C62.8152 11.6 64.0018 11.9067 64.8152 12.52C65.6285 13.1333 66.0352 14.0333 66.0352 15.22C66.0352 16.42 65.6085 17.3533 64.7552 18.02C63.9152 18.6733 62.6485 19 60.9552 19H54.7552ZM56.2152 17.82H60.9552C62.1418 17.82 63.0418 17.6 63.6552 17.16C64.2685 16.72 64.5752 16.04 64.5752 15.12C64.5752 14.2133 64.2685 13.5467 63.6552 13.12C63.0418 12.6933 62.1418 12.48 60.9552 12.48H56.2152V17.82ZM56.2152 11.34H60.4952C61.5752 11.34 62.4018 11.1267 62.9752 10.7C63.5618 10.26 63.8552 9.61333 63.8552 8.76C63.8552 7.90667 63.5618 7.26667 62.9752 6.84C62.4018 6.4 61.5752 6.18 60.4952 6.18H56.2152V11.34ZM72.3203 19V5.88L72.7203 6.28H67.4003V5H78.7003V6.28H73.4003L73.7803 5.88V19H72.3203Z" fill="#404040"/>
<path d="M107.065 19.12C106.012 19.12 105.039 18.9467 104.145 18.6C103.252 18.24 102.479 17.74 101.825 17.1C101.172 16.46 100.659 15.7067 100.285 14.84C99.9253 13.9733 99.7453 13.0267 99.7453 12C99.7453 10.9733 99.9253 10.0267 100.285 9.16C100.659 8.29333 101.172 7.54 101.825 6.9C102.492 6.26 103.272 5.76667 104.165 5.42C105.059 5.06 106.032 4.88 107.085 4.88C108.099 4.88 109.052 5.05333 109.945 5.4C110.839 5.73333 111.592 6.24 112.205 6.92L111.265 7.86C110.692 7.27333 110.059 6.85333 109.365 6.6C108.672 6.33333 107.925 6.2 107.125 6.2C106.285 6.2 105.505 6.34667 104.785 6.64C104.065 6.92 103.439 7.32667 102.905 7.86C102.372 8.38 101.952 8.99333 101.645 9.7C101.352 10.3933 101.205 11.16 101.205 12C101.205 12.84 101.352 13.6133 101.645 14.32C101.952 15.0133 102.372 15.6267 102.905 16.16C103.439 16.68 104.065 17.0867 104.785 17.38C105.505 17.66 106.285 17.8 107.125 17.8C107.925 17.8 108.672 17.6667 109.365 17.4C110.059 17.1333 110.692 16.7067 111.265 16.12L112.205 17.06C111.592 17.74 110.839 18.2533 109.945 18.6C109.052 18.9467 108.092 19.12 107.065 19.12ZM115.262 19V5H120.502C121.688 5 122.708 5.19333 123.562 5.58C124.415 5.95333 125.068 6.5 125.522 7.22C125.988 7.92667 126.222 8.78667 126.222 9.8C126.222 10.7867 125.988 11.64 125.522 12.36C125.068 13.0667 124.415 13.6133 123.562 14C122.708 14.3867 121.688 14.58 120.502 14.58H116.082L116.742 13.88V19H115.262ZM116.742 14L116.082 13.28H120.462C121.862 13.28 122.922 12.98 123.642 12.38C124.375 11.7667 124.742 10.9067 124.742 9.8C124.742 8.68 124.375 7.81333 123.642 7.2C122.922 6.58667 121.862 6.28 120.462 6.28H116.082L116.742 5.58V14Z" fill="#404040"/>
<path d="M157.867 13.08C157.067 13.44 156.267 13.7133 155.467 13.9C154.68 14.0867 153.92 14.18 153.187 14.18C151.547 14.18 150.267 13.7867 149.347 13C148.44 12.2 147.987 11.0733 147.987 9.62V5H149.447V9.46C149.447 10.54 149.787 11.38 150.467 11.98C151.16 12.58 152.113 12.88 153.327 12.88C154.047 12.88 154.793 12.7867 155.567 12.6C156.34 12.4 157.107 12.12 157.867 11.76V13.08ZM157.607 19V5H159.047V19H157.607ZM166.576 19V5.88L166.976 6.28H161.656V5H172.956V6.28H167.656L168.036 5.88V19H166.576Z" fill="#404040"/>
<path d="M195.396 19V5H207.176V19H205.716V5.88L206.096 6.28H196.476L196.856 5.88V19H195.396ZM214.68 19V5.88L215.08 6.28H209.76V5H221.06V6.28H215.76L216.14 5.88V19H214.68Z" fill="#404040"/>
<path d="M249.399 19.12C248.346 19.12 247.373 18.9467 246.479 18.6C245.586 18.24 244.813 17.74 244.159 17.1C243.506 16.46 242.993 15.7067 242.619 14.84C242.259 13.9733 242.079 13.0267 242.079 12C242.079 10.9733 242.259 10.0267 242.619 9.16C242.993 8.29333 243.506 7.54 244.159 6.9C244.826 6.26 245.606 5.76667 246.499 5.42C247.393 5.06 248.366 4.88 249.419 4.88C250.433 4.88 251.386 5.05333 252.279 5.4C253.173 5.73333 253.926 6.24 254.539 6.92L253.599 7.86C253.026 7.27333 252.393 6.85333 251.699 6.6C251.006 6.33333 250.259 6.2 249.459 6.2C248.619 6.2 247.839 6.34667 247.119 6.64C246.399 6.92 245.773 7.32667 245.239 7.86C244.706 8.38 244.286 8.99333 243.979 9.7C243.686 10.3933 243.539 11.16 243.539 12C243.539 12.84 243.686 13.6133 243.979 14.32C244.286 15.0133 244.706 15.6267 245.239 16.16C245.773 16.68 246.399 17.0867 247.119 17.38C247.839 17.66 248.619 17.8 249.459 17.8C250.259 17.8 251.006 17.6667 251.699 17.4C252.393 17.1333 253.026 16.7067 253.599 16.12L254.539 17.06C253.926 17.74 253.173 18.2533 252.279 18.6C251.386 18.9467 250.426 19.12 249.399 19.12ZM257.596 19V5H267.836V6.26H259.056V10.84H263.636C265.289 10.84 266.542 11.18 267.396 11.86C268.262 12.5267 268.696 13.5133 268.696 14.82C268.696 16.1667 268.229 17.2 267.296 17.92C266.376 18.64 265.049 19 263.316 19H257.596ZM259.056 17.82H263.296C264.589 17.82 265.562 17.5733 266.216 17.08C266.882 16.5733 267.216 15.84 267.216 14.88C267.216 12.9733 265.909 12.02 263.296 12.02H259.056V17.82Z" fill="#404040"/>
<path d="M291.712 19V5H297.532C299.012 5 300.172 5.30667 301.012 5.92C301.865 6.52 302.292 7.40667 302.292 8.58C302.292 9.74 301.885 10.62 301.072 11.22C300.258 11.8067 299.192 12.1 297.872 12.1L298.212 11.6C299.772 11.6 300.958 11.9067 301.772 12.52C302.585 13.1333 302.992 14.0333 302.992 15.22C302.992 16.42 302.565 17.3533 301.712 18.02C300.872 18.6733 299.605 19 297.912 19H291.712ZM293.172 17.82H297.912C299.098 17.82 299.998 17.6 300.612 17.16C301.225 16.72 301.532 16.04 301.532 15.12C301.532 14.2133 301.225 13.5467 300.612 13.12C299.998 12.6933 299.098 12.48 297.912 12.48H293.172V17.82ZM293.172 11.34H297.452C298.532 11.34 299.358 11.1267 299.932 10.7C300.518 10.26 300.812 9.61333 300.812 8.76C300.812 7.90667 300.518 7.26667 299.932 6.84C299.358 6.4 298.532 6.18 297.452 6.18H293.172V11.34ZM312.812 19.12C311.759 19.12 310.785 18.9467 309.892 18.6C308.999 18.24 308.225 17.74 307.572 17.1C306.919 16.46 306.405 15.7067 306.032 14.84C305.672 13.9733 305.492 13.0267 305.492 12C305.492 10.9733 305.672 10.0267 306.032 9.16C306.405 8.29333 306.919 7.54 307.572 6.9C308.239 6.26 309.019 5.76667 309.912 5.42C310.805 5.06 311.779 4.88 312.832 4.88C313.845 4.88 314.799 5.05333 315.692 5.4C316.585 5.73333 317.339 6.24 317.952 6.92L317.012 7.86C316.439 7.27333 315.805 6.85333 315.112 6.6C314.419 6.33333 313.672 6.2 312.872 6.2C312.032 6.2 311.252 6.34667 310.532 6.64C309.812 6.92 309.185 7.32667 308.652 7.86C308.119 8.38 307.699 8.99333 307.392 9.7C307.099 10.3933 306.952 11.16 306.952 12C306.952 12.84 307.099 13.6133 307.392 14.32C307.699 15.0133 308.119 15.6267 308.652 16.16C309.185 16.68 309.812 17.0867 310.532 17.38C311.252 17.66 312.032 17.8 312.872 17.8C313.672 17.8 314.419 17.6667 315.112 17.4C315.805 17.1333 316.439 16.7067 317.012 16.12L317.952 17.06C317.339 17.74 316.585 18.2533 315.692 18.6C314.799 18.9467 313.839 19.12 312.812 19.12Z" fill="#404040"/>
<path d="M306.867 53V39.6L307.507 40.28H303.567V39H308.307V53H306.867Z" fill="#404040"/>
<path d="M7.59641 87V85.98L13.4164 80.28C13.9497 79.76 14.3497 79.3067 14.6164 78.92C14.8831 78.52 15.0631 78.1467 15.1564 77.8C15.2497 77.4533 15.2964 77.1267 15.2964 76.82C15.2964 76.0067 15.0164 75.3667 14.4564 74.9C13.9097 74.4333 13.0964 74.2 12.0164 74.2C11.1897 74.2 10.4564 74.3267 9.81641 74.58C9.18974 74.8333 8.64974 75.2267 8.19641 75.76L7.17641 74.88C7.72307 74.24 8.42307 73.7467 9.27641 73.4C10.1297 73.0533 11.0831 72.88 12.1364 72.88C13.0831 72.88 13.9031 73.0333 14.5964 73.34C15.2897 73.6333 15.8231 74.0667 16.1964 74.64C16.5831 75.2133 16.7764 75.8867 16.7764 76.66C16.7764 77.1133 16.7097 77.56 16.5764 78C16.4564 78.44 16.2297 78.9067 15.8964 79.4C15.5764 79.88 15.1031 80.4267 14.4764 81.04L9.13641 86.28L8.73641 85.72H17.4164V87H7.59641Z" fill="#404040"/>
<path d="M11.8063 106.88C13.0463 106.88 14.0929 107.16 14.9463 107.72C15.7996 108.267 16.4463 109.06 16.8863 110.1C17.3263 111.14 17.5463 112.4 17.5463 113.88C17.5463 115.453 17.2729 116.78 16.7263 117.86C16.1929 118.94 15.4463 119.753 14.4863 120.3C13.5263 120.847 12.4129 121.12 11.1463 121.12C10.5196 121.12 9.91958 121.06 9.34625 120.94C8.78625 120.82 8.27958 120.627 7.82625 120.36L8.40625 119.2C8.76625 119.44 9.17958 119.613 9.64625 119.72C10.1263 119.813 10.6196 119.86 11.1263 119.86C12.6329 119.86 13.8329 119.38 14.7263 118.42C15.6329 117.46 16.0863 116.027 16.0863 114.12C16.0863 113.813 16.0663 113.447 16.0263 113.02C15.9996 112.593 15.9263 112.167 15.8063 111.74L16.3063 112.12C16.1729 112.813 15.8863 113.407 15.4463 113.9C15.0196 114.38 14.4863 114.747 13.8463 115C13.2196 115.253 12.5196 115.38 11.7463 115.38C10.8263 115.38 10.0063 115.207 9.28625 114.86C8.57958 114.513 8.02625 114.027 7.62625 113.4C7.22625 112.773 7.02625 112.033 7.02625 111.18C7.02625 110.3 7.23292 109.54 7.64625 108.9C8.05958 108.26 8.62625 107.767 9.34625 107.42C10.0796 107.06 10.8996 106.88 11.8063 106.88ZM11.8663 108.1C11.1996 108.1 10.6063 108.227 10.0863 108.48C9.57958 108.72 9.17958 109.067 8.88625 109.52C8.59292 109.973 8.44625 110.513 8.44625 111.14C8.44625 112.06 8.75958 112.793 9.38625 113.34C10.0263 113.887 10.8863 114.16 11.9663 114.16C12.6863 114.16 13.3129 114.027 13.8463 113.76C14.3929 113.493 14.8129 113.127 15.1063 112.66C15.4129 112.193 15.5663 111.673 15.5663 111.1C15.5663 110.58 15.4263 110.093 15.1463 109.64C14.8663 109.187 14.4529 108.82 13.9063 108.54C13.3596 108.247 12.6796 108.1 11.8663 108.1Z" fill="#404040"/>
<path d="M6.27297 155V141.6L6.91297 142.28H2.97297V141H7.71297V155H6.27297ZM16.7995 155.12C15.5595 155.12 14.5129 154.847 13.6595 154.3C12.8062 153.74 12.1595 152.94 11.7195 151.9C11.2795 150.847 11.0595 149.587 11.0595 148.12C11.0595 146.533 11.3262 145.207 11.8595 144.14C12.4062 143.06 13.1595 142.247 14.1195 141.7C15.0795 141.153 16.1929 140.88 17.4595 140.88C18.0862 140.88 18.6862 140.94 19.2595 141.06C19.8329 141.18 20.3395 141.373 20.7795 141.64L20.1995 142.8C19.8395 142.56 19.4262 142.393 18.9595 142.3C18.4929 142.193 17.9995 142.14 17.4795 142.14C15.9729 142.14 14.7662 142.62 13.8595 143.58C12.9662 144.54 12.5195 145.973 12.5195 147.88C12.5195 148.173 12.5329 148.54 12.5595 148.98C12.5995 149.407 12.6795 149.833 12.7995 150.26L12.2995 149.88C12.4462 149.187 12.7329 148.6 13.1595 148.12C13.5862 147.627 14.1195 147.253 14.7595 147C15.3995 146.747 16.0995 146.62 16.8595 146.62C17.7929 146.62 18.6129 146.793 19.3195 147.14C20.0262 147.487 20.5795 147.973 20.9795 148.6C21.3795 149.227 21.5795 149.967 21.5795 150.82C21.5795 151.687 21.3729 152.447 20.9595 153.1C20.5462 153.74 19.9729 154.24 19.2395 154.6C18.5195 154.947 17.7062 155.12 16.7995 155.12ZM16.7395 153.9C17.4062 153.9 17.9929 153.78 18.4995 153.54C19.0195 153.287 19.4262 152.933 19.7195 152.48C20.0129 152.013 20.1595 151.473 20.1595 150.86C20.1595 149.94 19.8395 149.207 19.1995 148.66C18.5729 148.113 17.7195 147.84 16.6395 147.84C15.9195 147.84 15.2929 147.973 14.7595 148.24C14.2262 148.507 13.8062 148.873 13.4995 149.34C13.1929 149.793 13.0395 150.313 13.0395 150.9C13.0395 151.407 13.1795 151.893 13.4595 152.36C13.7395 152.813 14.1529 153.187 14.6995 153.48C15.2595 153.76 15.9395 153.9 16.7395 153.9Z" fill="#404040"/>
<path d="M1.95188 189V187.98L7.77188 182.28C8.30521 181.76 8.70521 181.307 8.97188 180.92C9.23854 180.52 9.41854 180.147 9.51188 179.8C9.60521 179.453 9.65188 179.127 9.65188 178.82C9.65188 178.007 9.37188 177.367 8.81188 176.9C8.26521 176.433 7.45188 176.2 6.37188 176.2C5.54521 176.2 4.81188 176.327 4.17188 176.58C3.54521 176.833 3.00521 177.227 2.55188 177.76L1.53188 176.88C2.07854 176.24 2.77854 175.747 3.63188 175.4C4.48521 175.053 5.43854 174.88 6.49188 174.88C7.43854 174.88 8.25854 175.033 8.95188 175.34C9.64521 175.633 10.1785 176.067 10.5519 176.64C10.9385 177.213 11.1319 177.887 11.1319 178.66C11.1319 179.113 11.0652 179.56 10.9319 180C10.8119 180.44 10.5852 180.907 10.2519 181.4C9.93188 181.88 9.45854 182.427 8.83188 183.04L3.49188 188.28L3.09188 187.72H11.7719V189H1.95188ZM17.7591 189.12C16.7457 189.12 15.7857 188.96 14.8791 188.64C13.9857 188.307 13.2657 187.867 12.7191 187.32L13.4191 186.18C13.8724 186.647 14.4791 187.033 15.2391 187.34C16.0124 187.647 16.8524 187.8 17.7591 187.8C18.9191 187.8 19.8057 187.547 20.4191 187.04C21.0457 186.533 21.3591 185.853 21.3591 185C21.3591 184.147 21.0524 183.467 20.4391 182.96C19.8391 182.453 18.8857 182.2 17.5791 182.2H16.5791V181.14L20.8991 175.72L21.0991 176.28H13.2991V175H22.2991V176.02L17.9791 181.44L17.2791 180.98H17.8191C19.4991 180.98 20.7524 181.353 21.5791 182.1C22.4191 182.847 22.8391 183.807 22.8391 184.98C22.8391 185.767 22.6524 186.473 22.2791 187.1C21.9057 187.727 21.3391 188.22 20.5791 188.58C19.8324 188.94 18.8924 189.12 17.7591 189.12Z" fill="#404040"/>
<path d="M5.45438 223.12C4.44104 223.12 3.48104 222.96 2.57438 222.64C1.68104 222.307 0.961042 221.867 0.414375 221.32L1.11438 220.18C1.56771 220.647 2.17438 221.033 2.93438 221.34C3.70771 221.647 4.54771 221.8 5.45438 221.8C6.61438 221.8 7.50104 221.547 8.11438 221.04C8.74104 220.533 9.05438 219.853 9.05438 219C9.05438 218.147 8.74771 217.467 8.13438 216.96C7.53438 216.453 6.58104 216.2 5.27438 216.2H4.27438V215.14L8.59438 209.72L8.79438 210.28H0.994375V209H9.99438V210.02L5.67438 215.44L4.97438 214.98H5.51437C7.19438 214.98 8.44771 215.353 9.27438 216.1C10.1144 216.847 10.5344 217.807 10.5344 218.98C10.5344 219.767 10.3477 220.473 9.97438 221.1C9.60104 221.727 9.03438 222.22 8.27438 222.58C7.52771 222.94 6.58771 223.12 5.45438 223.12ZM18.1434 223.12C17.0634 223.12 16.1034 222.84 15.2634 222.28C14.4234 221.707 13.7634 220.893 13.2834 219.84C12.8034 218.773 12.5634 217.493 12.5634 216C12.5634 214.507 12.8034 213.233 13.2834 212.18C13.7634 211.113 14.4234 210.3 15.2634 209.74C16.1034 209.167 17.0634 208.88 18.1434 208.88C19.2234 208.88 20.1834 209.167 21.0234 209.74C21.8634 210.3 22.5234 211.113 23.0034 212.18C23.4968 213.233 23.7434 214.507 23.7434 216C23.7434 217.493 23.4968 218.773 23.0034 219.84C22.5234 220.893 21.8634 221.707 21.0234 222.28C20.1834 222.84 19.2234 223.12 18.1434 223.12ZM18.1434 221.8C18.9701 221.8 19.6901 221.58 20.3034 221.14C20.9168 220.687 21.3968 220.033 21.7434 219.18C22.0901 218.313 22.2634 217.253 22.2634 216C22.2634 214.747 22.0901 213.693 21.7434 212.84C21.3968 211.973 20.9168 211.32 20.3034 210.88C19.6901 210.427 18.9701 210.2 18.1434 210.2C17.3434 210.2 16.6301 210.427 16.0034 210.88C15.3768 211.32 14.8901 211.973 14.5434 212.84C14.1968 213.693 14.0234 214.747 14.0234 216C14.0234 217.253 14.1968 218.313 14.5434 219.18C14.8901 220.033 15.3768 220.687 16.0034 221.14C16.6301 221.58 17.3434 221.8 18.1434 221.8Z" fill="#404040"/>
<path d="M61.7421 87.12C60.7288 87.12 59.7688 86.96 58.8621 86.64C57.9688 86.3067 57.2488 85.8667 56.7021 85.32L57.4021 84.18C57.8555 84.6467 58.4621 85.0333 59.2221 85.34C59.9955 85.6467 60.8355 85.8 61.7421 85.8C62.9021 85.8 63.7888 85.5467 64.4021 85.04C65.0288 84.5333 65.3421 83.8533 65.3421 83C65.3421 82.1467 65.0355 81.4667 64.4221 80.96C63.8221 80.4533 62.8688 80.2 61.5621 80.2H60.5621V79.14L64.8821 73.72L65.0821 74.28H57.2821V73H66.2821V74.02L61.9621 79.44L61.2621 78.98H61.8021C63.4821 78.98 64.7355 79.3533 65.5621 80.1C66.4021 80.8467 66.8221 81.8067 66.8221 82.98C66.8221 83.7667 66.6355 84.4733 66.2621 85.1C65.8888 85.7267 65.3221 86.22 64.5621 86.58C63.8155 86.94 62.8755 87.12 61.7421 87.12Z" fill="#404040"/>
<path d="M55.4123 121V107.6L56.0523 108.28H52.1123V107H56.8523V121H55.4123ZM65.7789 121.12C64.6989 121.12 63.7389 120.84 62.8989 120.28C62.0589 119.707 61.3989 118.893 60.9189 117.84C60.4389 116.773 60.1989 115.493 60.1989 114C60.1989 112.507 60.4389 111.233 60.9189 110.18C61.3989 109.113 62.0589 108.3 62.8989 107.74C63.7389 107.167 64.6989 106.88 65.7789 106.88C66.8589 106.88 67.8189 107.167 68.6589 107.74C69.4989 108.3 70.1589 109.113 70.6389 110.18C71.1322 111.233 71.3789 112.507 71.3789 114C71.3789 115.493 71.1322 116.773 70.6389 117.84C70.1589 118.893 69.4989 119.707 68.6589 120.28C67.8189 120.84 66.8589 121.12 65.7789 121.12ZM65.7789 119.8C66.6055 119.8 67.3255 119.58 67.9389 119.14C68.5522 118.687 69.0322 118.033 69.3789 117.18C69.7255 116.313 69.8989 115.253 69.8989 114C69.8989 112.747 69.7255 111.693 69.3789 110.84C69.0322 109.973 68.5522 109.32 67.9389 108.88C67.3255 108.427 66.6055 108.2 65.7789 108.2C64.9789 108.2 64.2655 108.427 63.6389 108.88C63.0122 109.32 62.5255 109.973 62.1789 110.84C61.8322 111.693 61.6589 112.747 61.6589 114C61.6589 115.253 61.8322 116.313 62.1789 117.18C62.5255 118.033 63.0122 118.687 63.6389 119.14C64.2655 119.58 64.9789 119.8 65.7789 119.8Z" fill="#404040"/>
<path d="M56.1447 155V141.6L56.7847 142.28H52.8447V141H57.5847V155H56.1447ZM63.3913 155L69.4313 141.64L69.8713 142.28H61.2113L61.9513 141.58V144.9H60.5313V141H70.8113V142.02L64.9513 155H63.3913Z" fill="#404040"/>
<path d="M50.8764 189V187.98L56.6964 182.28C57.2297 181.76 57.6297 181.307 57.8964 180.92C58.163 180.52 58.343 180.147 58.4364 179.8C58.5297 179.453 58.5764 179.127 58.5764 178.82C58.5764 178.007 58.2964 177.367 57.7364 176.9C57.1897 176.433 56.3764 176.2 55.2964 176.2C54.4697 176.2 53.7364 176.327 53.0964 176.58C52.4697 176.833 51.9297 177.227 51.4764 177.76L50.4564 176.88C51.003 176.24 51.703 175.747 52.5564 175.4C53.4097 175.053 54.363 174.88 55.4164 174.88C56.363 174.88 57.183 175.033 57.8764 175.34C58.5697 175.633 59.103 176.067 59.4764 176.64C59.863 177.213 60.0564 177.887 60.0564 178.66C60.0564 179.113 59.9897 179.56 59.8564 180C59.7364 180.44 59.5097 180.907 59.1764 181.4C58.8564 181.88 58.383 182.427 57.7564 183.04L52.4164 188.28L52.0164 187.72H60.6964V189H50.8764ZM61.8143 185.32V184.28L69.2343 175H70.8343L63.4743 184.28L62.6943 184.04H73.9543V185.32H61.8143ZM69.7143 189V185.32L69.7543 184.04V180.8H71.1543V189H69.7143Z" fill="#404040"/>
<path d="M105.022 83.32V82.28L112.442 73H114.042L106.682 82.28L105.902 82.04H117.162V83.32H105.022ZM112.922 87V83.32L112.962 82.04V78.8H114.362V87H112.922Z" fill="#404040"/>
<path d="M107.087 121V107.6L107.727 108.28H103.787V107H108.527V121H107.087ZM114.313 121V107.6L114.953 108.28H111.013V107H115.753V121H114.313Z" fill="#404040"/>
<path d="M104.323 155V141.6L104.963 142.28H101.023V141H105.763V155H104.323ZM114.43 155.12C113.31 155.12 112.343 154.96 111.53 154.64C110.73 154.32 110.11 153.86 109.67 153.26C109.243 152.647 109.03 151.927 109.03 151.1C109.03 150.3 109.236 149.62 109.65 149.06C110.076 148.487 110.69 148.047 111.49 147.74C112.303 147.433 113.283 147.28 114.43 147.28C115.563 147.28 116.536 147.433 117.35 147.74C118.163 148.047 118.783 148.487 119.21 149.06C119.65 149.62 119.87 150.3 119.87 151.1C119.87 151.927 119.65 152.647 119.21 153.26C118.77 153.86 118.143 154.32 117.33 154.64C116.516 154.96 115.55 155.12 114.43 155.12ZM114.43 153.9C115.67 153.9 116.636 153.647 117.33 153.14C118.036 152.633 118.39 151.947 118.39 151.08C118.39 150.213 118.036 149.533 117.33 149.04C116.636 148.533 115.67 148.28 114.43 148.28C113.19 148.28 112.223 148.533 111.53 149.04C110.836 149.533 110.49 150.213 110.49 151.08C110.49 151.947 110.836 152.633 111.53 153.14C112.223 153.647 113.19 153.9 114.43 153.9ZM114.43 148.1C113.39 148.1 112.503 147.96 111.77 147.68C111.05 147.4 110.496 147 110.11 146.48C109.723 145.947 109.53 145.313 109.53 144.58C109.53 143.807 109.73 143.147 110.13 142.6C110.543 142.04 111.116 141.613 111.85 141.32C112.583 141.027 113.443 140.88 114.43 140.88C115.416 140.88 116.276 141.027 117.01 141.32C117.756 141.613 118.336 142.04 118.75 142.6C119.163 143.147 119.37 143.807 119.37 144.58C119.37 145.313 119.176 145.947 118.79 146.48C118.403 147 117.836 147.4 117.09 147.68C116.356 147.96 115.47 148.1 114.43 148.1ZM114.43 147.14C115.523 147.14 116.376 146.913 116.99 146.46C117.603 146.007 117.91 145.4 117.91 144.64C117.91 143.84 117.59 143.22 116.95 142.78C116.323 142.327 115.483 142.1 114.43 142.1C113.376 142.1 112.536 142.327 111.91 142.78C111.283 143.22 110.97 143.833 110.97 144.62C110.97 145.393 111.27 146.007 111.87 146.46C112.483 146.913 113.336 147.14 114.43 147.14Z" fill="#404040"/>
<path d="M100.266 189V187.98L106.086 182.28C106.619 181.76 107.019 181.307 107.286 180.92C107.552 180.52 107.732 180.147 107.826 179.8C107.919 179.453 107.966 179.127 107.966 178.82C107.966 178.007 107.686 177.367 107.126 176.9C106.579 176.433 105.766 176.2 104.686 176.2C103.859 176.2 103.126 176.327 102.486 176.58C101.859 176.833 101.319 177.227 100.866 177.76L99.8457 176.88C100.392 176.24 101.092 175.747 101.946 175.4C102.799 175.053 103.752 174.88 104.806 174.88C105.752 174.88 106.572 175.033 107.266 175.34C107.959 175.633 108.492 176.067 108.866 176.64C109.252 177.213 109.446 177.887 109.446 178.66C109.446 179.113 109.379 179.56 109.246 180C109.126 180.44 108.899 180.907 108.566 181.4C108.246 181.88 107.772 182.427 107.146 183.04L101.806 188.28L101.406 187.72H110.086V189H100.266ZM116.313 189.12C115.313 189.12 114.36 188.96 113.453 188.64C112.546 188.307 111.826 187.867 111.293 187.32L111.993 186.18C112.433 186.647 113.033 187.033 113.793 187.34C114.566 187.647 115.4 187.8 116.293 187.8C117.48 187.8 118.38 187.54 118.993 187.02C119.62 186.487 119.933 185.793 119.933 184.94C119.933 184.34 119.786 183.827 119.493 183.4C119.213 182.96 118.733 182.62 118.053 182.38C117.373 182.14 116.44 182.02 115.253 182.02H112.273L112.993 175H120.653V176.28H113.573L114.313 175.58L113.693 181.46L112.953 180.74H115.573C116.986 180.74 118.12 180.913 118.973 181.26C119.826 181.607 120.44 182.093 120.813 182.72C121.2 183.333 121.393 184.053 121.393 184.88C121.393 185.667 121.206 186.387 120.833 187.04C120.46 187.68 119.9 188.187 119.153 188.56C118.406 188.933 117.46 189.12 116.313 189.12Z" fill="#404040"/>
<path d="M158.796 87.12C157.796 87.12 156.843 86.96 155.936 86.64C155.029 86.3067 154.309 85.8667 153.776 85.32L154.476 84.18C154.916 84.6467 155.516 85.0333 156.276 85.34C157.049 85.6467 157.883 85.8 158.776 85.8C159.963 85.8 160.863 85.54 161.476 85.02C162.103 84.4867 162.416 83.7933 162.416 82.94C162.416 82.34 162.269 81.8267 161.976 81.4C161.696 80.96 161.216 80.62 160.536 80.38C159.856 80.14 158.923 80.02 157.736 80.02H154.756L155.476 73H163.136V74.28H156.056L156.796 73.58L156.176 79.46L155.436 78.74H158.056C159.469 78.74 160.603 78.9133 161.456 79.26C162.309 79.6067 162.923 80.0933 163.296 80.72C163.683 81.3333 163.876 82.0533 163.876 82.88C163.876 83.6667 163.689 84.3867 163.316 85.04C162.943 85.68 162.383 86.1867 161.636 86.56C160.889 86.9333 159.943 87.12 158.796 87.12Z" fill="#404040"/>
<path d="M153.183 121V107.6L153.823 108.28H149.883V107H154.623V121H153.183ZM157.71 121V119.98L163.53 114.28C164.063 113.76 164.463 113.307 164.73 112.92C164.996 112.52 165.176 112.147 165.27 111.8C165.363 111.453 165.41 111.127 165.41 110.82C165.41 110.007 165.13 109.367 164.57 108.9C164.023 108.433 163.21 108.2 162.13 108.2C161.303 108.2 160.57 108.327 159.93 108.58C159.303 108.833 158.763 109.227 158.31 109.76L157.29 108.88C157.836 108.24 158.536 107.747 159.39 107.4C160.243 107.053 161.196 106.88 162.25 106.88C163.196 106.88 164.016 107.033 164.71 107.34C165.403 107.633 165.936 108.067 166.31 108.64C166.696 109.213 166.89 109.887 166.89 110.66C166.89 111.113 166.823 111.56 166.69 112C166.57 112.44 166.343 112.907 166.01 113.4C165.69 113.88 165.216 114.427 164.59 115.04L159.25 120.28L158.85 119.72H167.53V121H157.71Z" fill="#404040"/>
<path d="M152.773 155V141.6L153.413 142.28H149.473V141H154.213V155H152.773ZM161.92 140.88C163.16 140.88 164.206 141.16 165.06 141.72C165.913 142.267 166.56 143.06 167 144.1C167.44 145.14 167.66 146.4 167.66 147.88C167.66 149.453 167.386 150.78 166.84 151.86C166.306 152.94 165.56 153.753 164.6 154.3C163.64 154.847 162.526 155.12 161.26 155.12C160.633 155.12 160.033 155.06 159.46 154.94C158.9 154.82 158.393 154.627 157.94 154.36L158.52 153.2C158.88 153.44 159.293 153.613 159.76 153.72C160.24 153.813 160.733 153.86 161.24 153.86C162.746 153.86 163.946 153.38 164.84 152.42C165.746 151.46 166.2 150.027 166.2 148.12C166.2 147.813 166.18 147.447 166.14 147.02C166.113 146.593 166.04 146.167 165.92 145.74L166.42 146.12C166.286 146.813 166 147.407 165.56 147.9C165.133 148.38 164.6 148.747 163.96 149C163.333 149.253 162.633 149.38 161.86 149.38C160.94 149.38 160.12 149.207 159.4 148.86C158.693 148.513 158.14 148.027 157.74 147.4C157.34 146.773 157.14 146.033 157.14 145.18C157.14 144.3 157.346 143.54 157.76 142.9C158.173 142.26 158.74 141.767 159.46 141.42C160.193 141.06 161.013 140.88 161.92 140.88ZM161.98 142.1C161.313 142.1 160.72 142.227 160.2 142.48C159.693 142.72 159.293 143.067 159 143.52C158.706 143.973 158.56 144.513 158.56 145.14C158.56 146.06 158.873 146.793 159.5 147.34C160.14 147.887 161 148.16 162.08 148.16C162.8 148.16 163.426 148.027 163.96 147.76C164.506 147.493 164.926 147.127 165.22 146.66C165.526 146.193 165.68 145.673 165.68 145.1C165.68 144.58 165.54 144.093 165.26 143.64C164.98 143.187 164.566 142.82 164.02 142.54C163.473 142.247 162.793 142.1 161.98 142.1Z" fill="#404040"/>
<path d="M148.022 189V187.98L153.842 182.28C154.376 181.76 154.776 181.307 155.042 180.92C155.309 180.52 155.489 180.147 155.582 179.8C155.676 179.453 155.722 179.127 155.722 178.82C155.722 178.007 155.442 177.367 154.882 176.9C154.336 176.433 153.522 176.2 152.442 176.2C151.616 176.2 150.882 176.327 150.242 176.58C149.616 176.833 149.076 177.227 148.622 177.76L147.602 176.88C148.149 176.24 148.849 175.747 149.702 175.4C150.556 175.053 151.509 174.88 152.562 174.88C153.509 174.88 154.329 175.033 155.022 175.34C155.716 175.633 156.249 176.067 156.622 176.64C157.009 177.213 157.202 177.887 157.202 178.66C157.202 179.113 157.136 179.56 157.002 180C156.882 180.44 156.656 180.907 156.322 181.4C156.002 181.88 155.529 182.427 154.902 183.04L149.562 188.28L149.162 187.72H157.842V189H148.022ZM165.35 189.12C164.11 189.12 163.064 188.847 162.21 188.3C161.357 187.74 160.71 186.94 160.27 185.9C159.83 184.847 159.61 183.587 159.61 182.12C159.61 180.533 159.877 179.207 160.41 178.14C160.957 177.06 161.71 176.247 162.67 175.7C163.63 175.153 164.744 174.88 166.01 174.88C166.637 174.88 167.237 174.94 167.81 175.06C168.384 175.18 168.89 175.373 169.33 175.64L168.75 176.8C168.39 176.56 167.977 176.393 167.51 176.3C167.044 176.193 166.55 176.14 166.03 176.14C164.524 176.14 163.317 176.62 162.41 177.58C161.517 178.54 161.07 179.973 161.07 181.88C161.07 182.173 161.084 182.54 161.11 182.98C161.15 183.407 161.23 183.833 161.35 184.26L160.85 183.88C160.997 183.187 161.284 182.6 161.71 182.12C162.137 181.627 162.67 181.253 163.31 181C163.95 180.747 164.65 180.62 165.41 180.62C166.344 180.62 167.164 180.793 167.87 181.14C168.577 181.487 169.13 181.973 169.53 182.6C169.93 183.227 170.13 183.967 170.13 184.82C170.13 185.687 169.924 186.447 169.51 187.1C169.097 187.74 168.524 188.24 167.79 188.6C167.07 188.947 166.257 189.12 165.35 189.12ZM165.29 187.9C165.957 187.9 166.544 187.78 167.05 187.54C167.57 187.287 167.977 186.933 168.27 186.48C168.564 186.013 168.71 185.473 168.71 184.86C168.71 183.94 168.39 183.207 167.75 182.66C167.124 182.113 166.27 181.84 165.19 181.84C164.47 181.84 163.844 181.973 163.31 182.24C162.777 182.507 162.357 182.873 162.05 183.34C161.744 183.793 161.59 184.313 161.59 184.9C161.59 185.407 161.73 185.893 162.01 186.36C162.29 186.813 162.704 187.187 163.25 187.48C163.81 187.76 164.49 187.9 165.29 187.9Z" fill="#404040"/>
<path d="M208.853 87.12C207.613 87.12 206.566 86.8467 205.713 86.3C204.86 85.74 204.213 84.94 203.773 83.9C203.333 82.8467 203.113 81.5867 203.113 80.12C203.113 78.5333 203.38 77.2067 203.913 76.14C204.46 75.06 205.213 74.2467 206.173 73.7C207.133 73.1533 208.246 72.88 209.513 72.88C210.14 72.88 210.74 72.94 211.313 73.06C211.886 73.18 212.393 73.3733 212.833 73.64L212.253 74.8C211.893 74.56 211.48 74.3933 211.013 74.3C210.546 74.1933 210.053 74.14 209.533 74.14C208.026 74.14 206.82 74.62 205.913 75.58C205.02 76.54 204.573 77.9733 204.573 79.88C204.573 80.1733 204.586 80.54 204.613 80.98C204.653 81.4067 204.733 81.8333 204.853 82.26L204.353 81.88C204.5 81.1867 204.786 80.6 205.213 80.12C205.64 79.6267 206.173 79.2533 206.813 79C207.453 78.7467 208.153 78.62 208.913 78.62C209.846 78.62 210.666 78.7933 211.373 79.14C212.08 79.4867 212.633 79.9733 213.033 80.6C213.433 81.2267 213.633 81.9667 213.633 82.82C213.633 83.6867 213.426 84.4467 213.013 85.1C212.6 85.74 212.026 86.24 211.293 86.6C210.573 86.9467 209.76 87.12 208.853 87.12ZM208.793 85.9C209.46 85.9 210.046 85.78 210.553 85.54C211.073 85.2867 211.48 84.9333 211.773 84.48C212.066 84.0133 212.213 83.4733 212.213 82.86C212.213 81.94 211.893 81.2067 211.253 80.66C210.626 80.1133 209.773 79.84 208.693 79.84C207.973 79.84 207.346 79.9733 206.813 80.24C206.28 80.5067 205.86 80.8733 205.553 81.34C205.246 81.7933 205.093 82.3133 205.093 82.9C205.093 83.4067 205.233 83.8933 205.513 84.36C205.793 84.8133 206.206 85.1867 206.753 85.48C207.313 85.76 207.993 85.9 208.793 85.9Z" fill="#404040"/>
<path d="M202.389 121V107.6L203.029 108.28H199.089V107H203.829V121H202.389ZM211.355 121.12C210.342 121.12 209.382 120.96 208.475 120.64C207.582 120.307 206.862 119.867 206.315 119.32L207.015 118.18C207.469 118.647 208.075 119.033 208.835 119.34C209.609 119.647 210.449 119.8 211.355 119.8C212.515 119.8 213.402 119.547 214.015 119.04C214.642 118.533 214.955 117.853 214.955 117C214.955 116.147 214.649 115.467 214.035 114.96C213.435 114.453 212.482 114.2 211.175 114.2H210.175V113.14L214.495 107.72L214.695 108.28H206.895V107H215.895V108.02L211.575 113.44L210.875 112.98H211.415C213.095 112.98 214.349 113.353 215.175 114.1C216.015 114.847 216.435 115.807 216.435 116.98C216.435 117.767 216.249 118.473 215.875 119.1C215.502 119.727 214.935 120.22 214.175 120.58C213.429 120.94 212.489 121.12 211.355 121.12Z" fill="#404040"/>
<path d="M196.662 155V153.98L202.482 148.28C203.015 147.76 203.415 147.307 203.682 146.92C203.948 146.52 204.128 146.147 204.222 145.8C204.315 145.453 204.362 145.127 204.362 144.82C204.362 144.007 204.082 143.367 203.522 142.9C202.975 142.433 202.162 142.2 201.082 142.2C200.255 142.2 199.522 142.327 198.882 142.58C198.255 142.833 197.715 143.227 197.262 143.76L196.242 142.88C196.788 142.24 197.488 141.747 198.342 141.4C199.195 141.053 200.148 140.88 201.202 140.88C202.148 140.88 202.968 141.033 203.662 141.34C204.355 141.633 204.888 142.067 205.262 142.64C205.648 143.213 205.842 143.887 205.842 144.66C205.842 145.113 205.775 145.56 205.642 146C205.522 146.44 205.295 146.907 204.962 147.4C204.642 147.88 204.168 148.427 203.542 149.04L198.202 154.28L197.802 153.72H206.482V155H196.662ZM213.83 155.12C212.75 155.12 211.79 154.84 210.95 154.28C210.11 153.707 209.45 152.893 208.97 151.84C208.49 150.773 208.25 149.493 208.25 148C208.25 146.507 208.49 145.233 208.97 144.18C209.45 143.113 210.11 142.3 210.95 141.74C211.79 141.167 212.75 140.88 213.83 140.88C214.91 140.88 215.87 141.167 216.71 141.74C217.55 142.3 218.21 143.113 218.69 144.18C219.183 145.233 219.43 146.507 219.43 148C219.43 149.493 219.183 150.773 218.69 151.84C218.21 152.893 217.55 153.707 216.71 154.28C215.87 154.84 214.91 155.12 213.83 155.12ZM213.83 153.8C214.656 153.8 215.376 153.58 215.99 153.14C216.603 152.687 217.083 152.033 217.43 151.18C217.776 150.313 217.95 149.253 217.95 148C217.95 146.747 217.776 145.693 217.43 144.84C217.083 143.973 216.603 143.32 215.99 142.88C215.376 142.427 214.656 142.2 213.83 142.2C213.03 142.2 212.316 142.427 211.69 142.88C211.063 143.32 210.576 143.973 210.23 144.84C209.883 145.693 209.71 146.747 209.71 148C209.71 149.253 209.883 150.313 210.23 151.18C210.576 152.033 211.063 152.687 211.69 153.14C212.316 153.58 213.03 153.8 213.83 153.8Z" fill="#404040"/>
<path d="M197.394 189V187.98L203.214 182.28C203.747 181.76 204.147 181.307 204.414 180.92C204.681 180.52 204.861 180.147 204.954 179.8C205.047 179.453 205.094 179.127 205.094 178.82C205.094 178.007 204.814 177.367 204.254 176.9C203.707 176.433 202.894 176.2 201.814 176.2C200.987 176.2 200.254 176.327 199.614 176.58C198.987 176.833 198.447 177.227 197.994 177.76L196.974 176.88C197.521 176.24 198.221 175.747 199.074 175.4C199.927 175.053 200.881 174.88 201.934 174.88C202.881 174.88 203.701 175.033 204.394 175.34C205.087 175.633 205.621 176.067 205.994 176.64C206.381 177.213 206.574 177.887 206.574 178.66C206.574 179.113 206.507 179.56 206.374 180C206.254 180.44 206.027 180.907 205.694 181.4C205.374 181.88 204.901 182.427 204.274 183.04L198.934 188.28L198.534 187.72H207.214V189H197.394ZM211.442 189L217.482 175.64L217.922 176.28H209.262L210.002 175.58V178.9H208.582V175H218.862V176.02L213.002 189H211.442Z" fill="#404040"/>
<path d="M255.445 87L261.485 73.64L261.925 74.28H253.265L254.005 73.58V76.9H252.585V73H262.865V74.02L257.005 87H255.445Z" fill="#404040"/>
<path d="M251.089 121V107.6L251.729 108.28H247.789V107H252.529V121H251.089ZM255.635 117.32V116.28L263.055 107H264.655L257.295 116.28L256.515 116.04H267.775V117.32H255.635ZM263.535 121V117.32L263.575 116.04V112.8H264.975V121H263.535Z" fill="#404040"/>
<path d="M249.316 155V153.98L255.136 148.28C255.67 147.76 256.07 147.307 256.336 146.92C256.603 146.52 256.783 146.147 256.876 145.8C256.97 145.453 257.016 145.127 257.016 144.82C257.016 144.007 256.736 143.367 256.176 142.9C255.63 142.433 254.816 142.2 253.736 142.2C252.91 142.2 252.176 142.327 251.536 142.58C250.91 142.833 250.37 143.227 249.916 143.76L248.896 142.88C249.443 142.24 250.143 141.747 250.996 141.4C251.85 141.053 252.803 140.88 253.856 140.88C254.803 140.88 255.623 141.033 256.316 141.34C257.01 141.633 257.543 142.067 257.916 142.64C258.303 143.213 258.496 143.887 258.496 144.66C258.496 145.113 258.43 145.56 258.296 146C258.176 146.44 257.95 146.907 257.616 147.4C257.296 147.88 256.823 148.427 256.196 149.04L250.856 154.28L250.456 153.72H259.136V155H249.316ZM263.384 155V141.6L264.024 142.28H260.084V141H264.824V155H263.384Z" fill="#404040"/>
<path d="M246.553 189V187.98L252.373 182.28C252.906 181.76 253.306 181.307 253.573 180.92C253.839 180.52 254.019 180.147 254.113 179.8C254.206 179.453 254.253 179.127 254.253 178.82C254.253 178.007 253.973 177.367 253.413 176.9C252.866 176.433 252.053 176.2 250.973 176.2C250.146 176.2 249.413 176.327 248.773 176.58C248.146 176.833 247.606 177.227 247.153 177.76L246.133 176.88C246.679 176.24 247.379 175.747 248.233 175.4C249.086 175.053 250.039 174.88 251.093 174.88C252.039 174.88 252.859 175.033 253.553 175.34C254.246 175.633 254.779 176.067 255.153 176.64C255.539 177.213 255.733 177.887 255.733 178.66C255.733 179.113 255.666 179.56 255.533 180C255.413 180.44 255.186 180.907 254.853 181.4C254.533 181.88 254.059 182.427 253.433 183.04L248.093 188.28L247.693 187.72H256.373V189H246.553ZM263.5 189.12C262.38 189.12 261.413 188.96 260.6 188.64C259.8 188.32 259.18 187.86 258.74 187.26C258.313 186.647 258.1 185.927 258.1 185.1C258.1 184.3 258.307 183.62 258.72 183.06C259.147 182.487 259.76 182.047 260.56 181.74C261.373 181.433 262.353 181.28 263.5 181.28C264.633 181.28 265.607 181.433 266.42 181.74C267.233 182.047 267.853 182.487 268.28 183.06C268.72 183.62 268.94 184.3 268.94 185.1C268.94 185.927 268.72 186.647 268.28 187.26C267.84 187.86 267.213 188.32 266.4 188.64C265.587 188.96 264.62 189.12 263.5 189.12ZM263.5 187.9C264.74 187.9 265.707 187.647 266.4 187.14C267.107 186.633 267.46 185.947 267.46 185.08C267.46 184.213 267.107 183.533 266.4 183.04C265.707 182.533 264.74 182.28 263.5 182.28C262.26 182.28 261.293 182.533 260.6 183.04C259.907 183.533 259.56 184.213 259.56 185.08C259.56 185.947 259.907 186.633 260.6 187.14C261.293 187.647 262.26 187.9 263.5 187.9ZM263.5 182.1C262.46 182.1 261.573 181.96 260.84 181.68C260.12 181.4 259.567 181 259.18 180.48C258.793 179.947 258.6 179.313 258.6 178.58C258.6 177.807 258.8 177.147 259.2 176.6C259.613 176.04 260.187 175.613 260.92 175.32C261.653 175.027 262.513 174.88 263.5 174.88C264.487 174.88 265.347 175.027 266.08 175.32C266.827 175.613 267.407 176.04 267.82 176.6C268.233 177.147 268.44 177.807 268.44 178.58C268.44 179.313 268.247 179.947 267.86 180.48C267.473 181 266.907 181.4 266.16 181.68C265.427 181.96 264.54 182.1 263.5 182.1ZM263.5 181.14C264.593 181.14 265.447 180.913 266.06 180.46C266.673 180.007 266.98 179.4 266.98 178.64C266.98 177.84 266.66 177.22 266.02 176.78C265.393 176.327 264.553 176.1 263.5 176.1C262.447 176.1 261.607 176.327 260.98 176.78C260.353 177.22 260.04 177.833 260.04 178.62C260.04 179.393 260.34 180.007 260.94 180.46C261.553 180.913 262.407 181.14 263.5 181.14Z" fill="#404040"/>
<circle cx="307" cy="114" r="16" fill="#FF0000"/>
<path d="M306.983 87.12C305.863 87.12 304.896 86.96 304.083 86.64C303.283 86.32 302.663 85.86 302.223 85.26C301.796 84.6467 301.583 83.9267 301.583 83.1C301.583 82.3 301.79 81.62 302.203 81.06C302.63 80.4867 303.243 80.0467 304.043 79.74C304.856 79.4333 305.836 79.28 306.983 79.28C308.116 79.28 309.09 79.4333 309.903 79.74C310.716 80.0467 311.336 80.4867 311.763 81.06C312.203 81.62 312.423 82.3 312.423 83.1C312.423 83.9267 312.203 84.6467 311.763 85.26C311.323 85.86 310.696 86.32 309.883 86.64C309.07 86.96 308.103 87.12 306.983 87.12ZM306.983 85.9C308.223 85.9 309.19 85.6467 309.883 85.14C310.59 84.6333 310.943 83.9467 310.943 83.08C310.943 82.2133 310.59 81.5333 309.883 81.04C309.19 80.5333 308.223 80.28 306.983 80.28C305.743 80.28 304.776 80.5333 304.083 81.04C303.39 81.5333 303.043 82.2133 303.043 83.08C303.043 83.9467 303.39 84.6333 304.083 85.14C304.776 85.6467 305.743 85.9 306.983 85.9ZM306.983 80.1C305.943 80.1 305.056 79.96 304.323 79.68C303.603 79.4 303.05 79 302.663 78.48C302.276 77.9467 302.083 77.3133 302.083 76.58C302.083 75.8067 302.283 75.1467 302.683 74.6C303.096 74.04 303.67 73.6133 304.403 73.32C305.136 73.0267 305.996 72.88 306.983 72.88C307.97 72.88 308.83 73.0267 309.563 73.32C310.31 73.6133 310.89 74.04 311.303 74.6C311.716 75.1467 311.923 75.8067 311.923 76.58C311.923 77.3133 311.73 77.9467 311.343 78.48C310.956 79 310.39 79.4 309.643 79.68C308.91 79.96 308.023 80.1 306.983 80.1ZM306.983 79.14C308.076 79.14 308.93 78.9133 309.543 78.46C310.156 78.0067 310.463 77.4 310.463 76.64C310.463 75.84 310.143 75.22 309.503 74.78C308.876 74.3267 308.036 74.1 306.983 74.1C305.93 74.1 305.09 74.3267 304.463 74.78C303.836 75.22 303.523 75.8333 303.523 76.62C303.523 77.3933 303.823 78.0067 304.423 78.46C305.036 78.9133 305.89 79.14 306.983 79.14Z" fill="#404040"/>
<path d="M300.077 121V108.2L301.477 109.6H297.277V107H303.317V121H300.077ZM310.509 121.24C309.535 121.24 308.569 121.113 307.609 120.86C306.662 120.593 305.849 120.22 305.169 119.74L306.449 117.26C306.982 117.647 307.595 117.953 308.289 118.18C308.995 118.407 309.709 118.52 310.429 118.52C311.242 118.52 311.882 118.36 312.349 118.04C312.815 117.72 313.049 117.273 313.049 116.7C313.049 116.34 312.955 116.02 312.769 115.74C312.582 115.46 312.249 115.247 311.769 115.1C311.302 114.953 310.642 114.88 309.789 114.88H306.209L306.929 107H315.469V109.6H308.089L309.769 108.12L309.269 113.74L307.589 112.26H310.549C311.935 112.26 313.049 112.453 313.889 112.84C314.742 113.213 315.362 113.727 315.749 114.38C316.135 115.033 316.329 115.773 316.329 116.6C316.329 117.427 316.122 118.193 315.709 118.9C315.295 119.593 314.655 120.16 313.789 120.6C312.935 121.027 311.842 121.24 310.509 121.24Z" fill="white"/>
<path d="M296.413 155V153.98L302.233 148.28C302.766 147.76 303.166 147.307 303.433 146.92C303.699 146.52 303.879 146.147 303.973 145.8C304.066 145.453 304.113 145.127 304.113 144.82C304.113 144.007 303.833 143.367 303.273 142.9C302.726 142.433 301.913 142.2 300.833 142.2C300.006 142.2 299.273 142.327 298.633 142.58C298.006 142.833 297.466 143.227 297.013 143.76L295.993 142.88C296.539 142.24 297.239 141.747 298.093 141.4C298.946 141.053 299.899 140.88 300.953 140.88C301.899 140.88 302.719 141.033 303.413 141.34C304.106 141.633 304.639 142.067 305.013 142.64C305.399 143.213 305.593 143.887 305.593 144.66C305.593 145.113 305.526 145.56 305.393 146C305.273 146.44 305.046 146.907 304.713 147.4C304.393 147.88 303.919 148.427 303.293 149.04L297.953 154.28L297.553 153.72H306.233V155H296.413ZM307.78 155V153.98L313.6 148.28C314.133 147.76 314.533 147.307 314.8 146.92C315.067 146.52 315.247 146.147 315.34 145.8C315.433 145.453 315.48 145.127 315.48 144.82C315.48 144.007 315.2 143.367 314.64 142.9C314.093 142.433 313.28 142.2 312.2 142.2C311.373 142.2 310.64 142.327 310 142.58C309.373 142.833 308.833 143.227 308.38 143.76L307.36 142.88C307.907 142.24 308.607 141.747 309.46 141.4C310.313 141.053 311.267 140.88 312.32 140.88C313.267 140.88 314.087 141.033 314.78 141.34C315.473 141.633 316.007 142.067 316.38 142.64C316.767 143.213 316.96 143.887 316.96 144.66C316.96 145.113 316.893 145.56 316.76 146C316.64 146.44 316.413 146.907 316.08 147.4C315.76 147.88 315.287 148.427 314.66 149.04L309.32 154.28L308.92 153.72H317.6V155H307.78Z" fill="#404040"/>
<path d="M296.003 189V187.98L301.823 182.28C302.356 181.76 302.756 181.307 303.023 180.92C303.289 180.52 303.469 180.147 303.563 179.8C303.656 179.453 303.703 179.127 303.703 178.82C303.703 178.007 303.423 177.367 302.863 176.9C302.316 176.433 301.503 176.2 300.423 176.2C299.596 176.2 298.863 176.327 298.223 176.58C297.596 176.833 297.056 177.227 296.603 177.76L295.583 176.88C296.129 176.24 296.829 175.747 297.683 175.4C298.536 175.053 299.489 174.88 300.543 174.88C301.489 174.88 302.309 175.033 303.003 175.34C303.696 175.633 304.229 176.067 304.603 176.64C304.989 177.213 305.183 177.887 305.183 178.66C305.183 179.113 305.116 179.56 304.983 180C304.863 180.44 304.636 180.907 304.303 181.4C303.983 181.88 303.509 182.427 302.883 183.04L297.543 188.28L297.143 187.72H305.823V189H296.003ZM311.99 174.88C313.23 174.88 314.276 175.16 315.13 175.72C315.983 176.267 316.63 177.06 317.07 178.1C317.51 179.14 317.73 180.4 317.73 181.88C317.73 183.453 317.456 184.78 316.91 185.86C316.376 186.94 315.63 187.753 314.67 188.3C313.71 188.847 312.596 189.12 311.33 189.12C310.703 189.12 310.103 189.06 309.53 188.94C308.97 188.82 308.463 188.627 308.01 188.36L308.59 187.2C308.95 187.44 309.363 187.613 309.83 187.72C310.31 187.813 310.803 187.86 311.31 187.86C312.816 187.86 314.016 187.38 314.91 186.42C315.816 185.46 316.27 184.027 316.27 182.12C316.27 181.813 316.25 181.447 316.21 181.02C316.183 180.593 316.11 180.167 315.99 179.74L316.49 180.12C316.356 180.813 316.07 181.407 315.63 181.9C315.203 182.38 314.67 182.747 314.03 183C313.403 183.253 312.703 183.38 311.93 183.38C311.01 183.38 310.19 183.207 309.47 182.86C308.763 182.513 308.21 182.027 307.81 181.4C307.41 180.773 307.21 180.033 307.21 179.18C307.21 178.3 307.416 177.54 307.83 176.9C308.243 176.26 308.81 175.767 309.53 175.42C310.263 175.06 311.083 174.88 311.99 174.88ZM312.05 176.1C311.383 176.1 310.79 176.227 310.27 176.48C309.763 176.72 309.363 177.067 309.07 177.52C308.776 177.973 308.63 178.513 308.63 179.14C308.63 180.06 308.943 180.793 309.57 181.34C310.21 181.887 311.07 182.16 312.15 182.16C312.87 182.16 313.496 182.027 314.03 181.76C314.576 181.493 314.996 181.127 315.29 180.66C315.596 180.193 315.75 179.673 315.75 179.1C315.75 178.58 315.61 178.093 315.33 177.64C315.05 177.187 314.636 176.82 314.09 176.54C313.543 176.247 312.863 176.1 312.05 176.1Z" fill="#404040"/>
</svg>
